<svg xmlns="http://www.w3.org/2000/svg" width="100%" viewBox="0 0 96 26" fill="none"><path d="M8.02037 6.97723C8.09055 6.93373 8.16328 6.89406 8.23601 6.8544C7.63119 4.91209 6.73671 3.09646 5.60362 1.45996C5.30121 1.6199 5.00517 1.79136 4.7168 1.97305C5.8703 3.6249 6.76733 5.46996 7.34791 7.44809C7.56228 7.27792 7.78686 7.12053 8.02037 6.97723Z" fill="currentColor"></path><path d="M7.99868 18.5249C7.77282 18.3854 7.5559 18.2319 7.34791 18.0681C6.76733 20.0475 5.8703 21.8926 4.7168 23.5444C5.00517 23.7274 5.29993 23.8989 5.60362 24.0575C6.73671 22.4197 7.63246 20.6054 8.23601 18.6618C8.15562 18.617 8.07651 18.5722 7.99868 18.5249Z" fill="currentColor"></path><path d="M6.08523 8.75339C6.16179 8.64847 6.24218 8.54738 6.32512 8.44758C5.79813 6.35685 4.89599 4.41327 3.69528 2.6936C3.42604 2.90472 3.16446 3.12608 2.91309 3.35767C4.19164 5.21169 5.10398 7.33824 5.54165 9.63241C5.70115 9.32533 5.88107 9.02976 6.08523 8.75339Z" fill="currentColor"></path><path d="M6.07187 16.7415C5.87409 16.4702 5.69928 16.1823 5.5436 15.8829C5.10466 18.1771 4.19359 20.3037 2.91504 22.1577C3.16641 22.3893 3.42799 22.6106 3.69723 22.8217C4.89795 21.1021 5.80008 19.1585 6.32707 17.0665C6.23903 16.9603 6.15353 16.8515 6.07187 16.7402V16.7415Z" fill="currentColor"></path><path d="M2.01965 4.26746C1.78232 4.5336 1.55519 4.80997 1.34082 5.09658C2.74953 7.3127 3.56745 9.94083 3.56745 12.7583C3.56745 15.5758 2.74953 18.2039 1.34082 20.4201C1.55519 20.7067 1.78232 20.983 2.01965 21.2492C3.64145 18.8181 4.58825 15.897 4.58825 12.7583C4.58825 9.61967 3.64145 6.69981 2.01965 4.26746Z" fill="currentColor"></path><path d="M0.574201 6.24402C0.366213 6.59461 0.174812 6.95543 0 7.32649C0.828126 8.95915 1.29642 10.8042 1.29642 12.758C1.29642 14.7118 0.828126 16.5569 0 18.1896C0.174812 18.5606 0.366213 18.9215 0.574201 19.272C1.68177 17.354 2.31722 15.129 2.31722 12.758C2.31722 10.3871 1.68177 8.16201 0.574201 6.24402Z" fill="currentColor"></path><path d="M18.2178 13.4518C18.8456 13.3341 19.4925 13.2701 20.1535 13.2701C19.504 13.2701 18.8673 13.2151 18.2458 13.1115C18.2458 13.1153 18.2458 13.1204 18.2458 13.1242C18.2395 13.2343 18.2293 13.343 18.2178 13.4518Z" fill="currentColor"></path><path d="M10.5772 19.4486C10.5121 19.4397 10.447 19.4307 10.3832 19.4192C10.1012 19.3719 9.82563 19.3053 9.55639 19.2247C8.94391 20.636 8.60449 22.1919 8.60449 23.8271C8.60449 24.2916 8.63256 24.7484 8.68616 25.1988C9.03323 25.2781 9.38541 25.3421 9.74141 25.392C9.66485 24.8815 9.62529 24.3594 9.62529 23.8271C9.62529 22.2661 9.96726 20.7832 10.5772 19.4486Z" fill="currentColor"></path><path d="M17.9615 14.7238C17.9475 14.7699 17.9347 14.816 17.9207 14.8608C17.8811 14.9798 17.839 15.0975 17.7944 15.2152C17.6987 15.4621 17.5876 15.7027 17.4639 15.9343C18.3073 15.6438 19.212 15.4852 20.1524 15.4852H23.9447C24.0174 15.1486 24.0774 14.807 24.1233 14.4615H20.1511C19.397 14.4615 18.6633 14.5537 17.9602 14.7238H17.9615Z" fill="currentColor"></path><path d="M13.1609 19.3131C12.745 19.418 12.3124 19.4807 11.8696 19.5038C11.1946 20.7986 10.8105 22.2688 10.8105 23.8272C10.8105 24.3992 10.8654 24.9596 10.9637 25.5034C11.1461 25.5111 11.3299 25.5162 11.5136 25.5162C11.677 25.5162 11.839 25.5124 11.9998 25.506C11.8888 24.9635 11.8301 24.4017 11.8301 23.8272C11.8301 22.1652 12.3201 20.6157 13.1584 19.3131H13.1609Z" fill="currentColor"></path><path d="M13.0195 23.8276C13.0195 24.3701 13.0821 24.8973 13.1969 25.4052C13.5376 25.3605 13.8732 25.3016 14.2037 25.2299C14.0978 24.7796 14.0403 24.31 14.0403 23.8276C14.0403 20.4471 16.7825 17.6974 20.1537 17.6974H23.2492C23.3896 17.3635 23.5147 17.0219 23.6269 16.6738H20.1537C16.2197 16.6738 13.0195 19.8829 13.0195 23.8276Z" fill="currentColor"></path><path d="M15.2278 23.8275C15.2278 24.205 15.2712 24.5722 15.3516 24.9254C15.6808 24.8217 16.0036 24.704 16.3201 24.5735C16.2729 24.3317 16.2486 24.0822 16.2486 23.8263C16.2486 21.6664 18.0006 19.9109 20.1545 19.9109H22.0519C22.2752 19.5808 22.4832 19.2392 22.6759 18.8873H20.1532C17.4366 18.8873 15.2266 21.1034 15.2266 23.8263L15.2278 23.8275Z" fill="currentColor"></path><path d="M18.2458 12.4053C18.8673 12.3017 19.504 12.2466 20.1535 12.2466C19.4925 12.2466 18.8456 12.1827 18.2178 12.0649C18.2293 12.1724 18.2395 12.2799 18.2446 12.3899C18.2446 12.3951 18.2446 12.4002 18.2446 12.4066L18.2458 12.4053Z" fill="currentColor"></path><path d="M9.55639 6.29177C9.82435 6.20988 10.1 6.14463 10.382 6.09729C10.447 6.08577 10.5121 6.07681 10.5772 6.06786C9.96726 4.73332 9.62529 3.25165 9.62529 1.68936C9.62529 1.15708 9.66613 0.635038 9.74141 0.124512C9.38413 0.174413 9.03195 0.238389 8.68616 0.317718C8.63256 0.768108 8.60449 1.22489 8.60449 1.68936C8.60449 3.3233 8.94518 4.88047 9.55639 6.29177Z" fill="currentColor"></path><path d="M18.2461 12.4053C18.2525 12.5217 18.2563 12.6395 18.2563 12.7584C18.2563 12.7956 18.2537 12.8327 18.2537 12.8685C18.2525 12.9491 18.2512 13.031 18.2474 13.1103C18.8688 13.214 19.5055 13.269 20.155 13.269H24.2293C24.2357 13.0988 24.2408 12.9286 24.2408 12.7572C24.2408 12.5857 24.2369 12.4155 24.2293 12.2454H20.155C19.5055 12.2454 18.8675 12.3004 18.2474 12.404L18.2461 12.4053Z" fill="currentColor"></path><path d="M17.4629 9.5824C17.6441 9.92275 17.7972 10.2797 17.9197 10.6521C17.935 10.6981 17.9478 10.7468 17.9618 10.7941C18.6649 10.9643 19.3986 11.0564 20.1527 11.0564H24.1249C24.079 10.7109 24.019 10.3693 23.9463 10.0328H20.154C19.2123 10.0328 18.3089 9.87285 17.4642 9.5824H17.4629Z" fill="currentColor"></path><path d="M11.871 6.01244C12.3138 6.03547 12.7463 6.09945 13.1623 6.20309C12.3227 4.90054 11.834 3.35105 11.834 1.68896C11.834 1.11446 11.8927 0.55275 12.0037 0.0102361C11.8416 0.00383854 11.6796 0 11.5175 0C11.3325 0 11.15 0.00511806 10.9676 0.0127951C10.8693 0.556589 10.8145 1.11702 10.8145 1.68896C10.8145 3.24741 11.1985 4.71757 11.8735 6.01244H11.871Z" fill="currentColor"></path><path d="M20.1537 8.84188H23.6269C23.5147 8.49385 23.3896 8.15222 23.2492 7.81827H20.1537C16.7825 7.81827 14.0403 5.06859 14.0403 1.68812C14.0403 1.20574 14.0978 0.736156 14.2037 0.285767C13.8719 0.214114 13.5363 0.155257 13.1969 0.110474C13.0821 0.618441 13.0195 1.1456 13.0195 1.68812C13.0195 5.63286 16.2197 8.84188 20.1537 8.84188Z" fill="currentColor"></path><path d="M20.1539 6.62824H22.6765C22.4839 6.27638 22.2759 5.93474 22.0526 5.60463H20.1552C18.0013 5.60463 16.2493 3.84786 16.2493 1.68931C16.2493 1.43341 16.2748 1.18391 16.3208 0.942077C16.0043 0.812846 15.6815 0.69513 15.3523 0.59021C15.2719 0.943356 15.2285 1.31058 15.2285 1.68803C15.2285 4.41212 17.4386 6.62696 20.1552 6.62696L20.1539 6.62824Z" fill="currentColor"></path><path d="M32.6904 20.1419C31.4552 19.413 30.4893 18.4058 29.7928 17.1168C29.0944 15.8296 28.7461 14.3718 28.7461 12.7471C28.7461 11.1223 29.0944 9.68785 29.7928 8.39882C30.4911 7.11159 31.457 6.10263 32.6904 5.37374C33.9238 4.64484 35.3169 4.2804 36.8645 4.2804C38.412 4.2804 39.7818 4.64484 41.0152 5.37374C42.2486 6.10263 43.2162 7.1062 43.9128 8.38626C44.6112 9.66631 44.9595 11.1205 44.9595 12.7453C44.9595 14.37 44.6112 15.8278 43.9128 17.115C43.2145 18.4023 42.2486 19.4112 41.0152 20.1401C39.78 20.869 38.3959 21.2317 36.8645 21.2317C35.3331 21.2317 33.9238 20.8672 32.6904 20.1401V20.1419ZM40.017 18.6572C40.9524 18.0755 41.6849 17.2658 42.2127 16.2299C42.7405 15.1941 43.0062 14.0325 43.0062 12.7453C43.0062 11.458 42.7423 10.3001 42.2127 9.27134C41.6831 8.24443 40.9506 7.43834 40.017 6.85666C39.0817 6.27498 38.0242 5.98234 36.8429 5.98234C35.6616 5.98234 34.6275 6.27318 33.6922 6.85666C32.7568 7.44013 32.0243 8.24443 31.4965 9.27134C30.9669 10.2983 30.703 11.4562 30.703 12.7453C30.703 14.0343 30.9669 15.1941 31.4965 16.2299C32.0261 17.264 32.7568 18.0737 33.6922 18.6572C34.6275 19.2407 35.6778 19.5315 36.8429 19.5315C38.0081 19.5315 39.0817 19.2407 40.017 18.6572Z" fill="currentColor"></path><path d="M52.6442 10.5392C51.9854 10.5392 51.3821 10.7654 50.8382 11.2178C50.2942 11.6703 49.8633 12.3417 49.5509 13.2304C49.2367 14.1209 49.0788 15.2016 49.0788 16.4727V21.0507H47.3086V9.11195H49.0788V11.5733C49.3696 10.8067 49.8723 10.1748 50.585 9.67568C51.2978 9.17838 52.0536 8.92883 52.8507 8.92883C53.3265 8.92883 53.6711 8.95935 53.8866 9.02039V10.699C53.5185 10.5913 53.1038 10.5374 52.6442 10.5374V10.5392Z" fill="currentColor"></path><path d="M58.9463 20.6485C58.2102 20.2571 57.7112 19.7867 57.4508 19.2338V21.0506H55.6807V4.28247H57.4508V10.9305C57.8189 10.347 58.3718 9.86946 59.1061 9.49244C59.8422 9.11722 60.6016 8.92872 61.3826 8.92872C62.5639 8.92872 63.5782 9.19801 64.431 9.73301C65.282 10.2698 65.9336 11.0023 66.3861 11.9305C66.8385 12.8586 67.0647 13.9053 67.0647 15.0705C67.0647 16.2356 66.8421 17.2859 66.3968 18.2212C65.9516 19.1566 65.2999 19.8926 64.4418 20.4294C63.5836 20.9662 62.5639 21.2337 61.3826 21.2337C60.4939 21.2337 59.6806 21.038 58.9445 20.6467L58.9463 20.6485ZM63.3269 19.083C63.9319 18.7077 64.4005 18.1709 64.729 17.4726C65.0593 16.7742 65.2227 15.9735 65.2227 15.0687C65.2227 13.7042 64.8618 12.6037 64.1419 11.7689C63.4202 10.9341 62.4543 10.5158 61.2443 10.5158C60.4616 10.5158 59.7686 10.7043 59.1636 11.0795C58.5567 11.4547 58.0936 11.9879 57.7722 12.6773C57.4508 13.3667 57.2893 14.1656 57.2893 15.0687C57.2893 15.9717 57.4508 16.7939 57.7722 17.4833C58.0936 18.1727 58.5585 18.7059 59.1636 19.0812C59.7686 19.4564 60.4634 19.6449 61.2443 19.6449C62.0253 19.6449 62.7201 19.4564 63.3251 19.0812L63.3269 19.083Z" fill="currentColor"></path><path d="M71.3668 4.28247V6.69715H69.2734V4.28247H71.3668ZM69.4117 9.11184H71.1818V21.0488H69.4117V9.11184Z" fill="currentColor"></path><path d="M80.0139 10.6543H76.908V17.7152C76.908 18.3598 77.066 18.8391 77.3802 19.1533C77.6944 19.4675 78.136 19.6254 78.7033 19.6254C79.1181 19.6254 79.5543 19.5644 80.0139 19.4423V21.0527C79.5238 21.1748 79.0552 21.2358 78.6118 21.2358C77.522 21.2358 76.6764 20.9486 76.0696 20.3741C75.4628 19.7996 75.1612 18.936 75.1612 17.7871V10.6561H72.8848V9.11574H75.1612V5.45691H76.9098V9.11394H80.0157V10.6543H80.0139Z" fill="currentColor"></path><path d="M83.213 20.8084C82.599 20.5247 82.1232 20.1297 81.7875 19.6235C81.45 19.1172 81.2812 18.5265 81.2812 17.8533C81.2812 16.8569 81.626 16.0436 82.3153 15.4153C83.0047 14.7869 83.994 14.3884 85.283 14.2196L88.1357 13.8516C88.5343 13.7905 88.8287 13.672 89.0208 13.4943C89.2129 13.3184 89.3081 13.0688 89.3081 12.7474C89.3081 12.0724 89.0388 11.5248 88.5038 11.1029C87.967 10.6811 87.2381 10.471 86.3189 10.471C85.3997 10.471 84.7121 10.6775 84.1681 11.0922C83.6241 11.5051 83.3207 12.0957 83.2597 12.8623H81.4428C81.5344 12.0652 81.7911 11.3704 82.213 10.7798C82.6349 10.1891 83.1986 9.73313 83.9042 9.41177C84.6097 9.09041 85.414 8.92883 86.3189 8.92883C87.2237 8.92883 88.0819 9.09759 88.8036 9.43511C89.5235 9.77263 90.0836 10.243 90.4822 10.8498C90.8807 11.4566 91.08 12.1424 91.08 12.909V18.6827C91.08 19.0364 91.1518 19.277 91.299 19.408C91.4445 19.5391 91.6563 19.6037 91.931 19.6037C92.0531 19.6037 92.1769 19.5893 92.299 19.557V21.0525C92.0082 21.1297 91.7479 21.1674 91.5163 21.1674C90.8718 21.1674 90.3619 20.9915 89.9867 20.6378C89.6115 20.2859 89.4158 19.7402 89.3996 19.0041C89.0783 19.6791 88.5451 20.2195 87.8018 20.6252C87.0585 21.031 86.2255 21.2356 85.3063 21.2356C84.5236 21.2356 83.827 21.0938 83.213 20.8102V20.8084ZM88.3188 18.636C88.9939 17.9161 89.3314 16.9179 89.3314 15.6451V15.0472L85.5128 15.6451C84.7157 15.7671 84.1124 16.0095 83.7067 16.3704C83.301 16.7312 83.0981 17.2178 83.0981 17.8317C83.0981 18.4457 83.3207 18.8748 83.766 19.2123C84.2112 19.5499 84.7929 19.7186 85.5146 19.7186C86.7103 19.7186 87.6456 19.3578 88.3206 18.6378L88.3188 18.636Z" fill="currentColor"></path><path d="M94.2295 4.28247H95.9997V21.0506H94.2295V4.28247Z" fill="currentColor"></path></svg>